<svg xmlns="http://www.w3.org/2000/svg" width="1231.969" height="3010" viewBox="0 0 1231.969 3010">
  <g id="_00_boooooook_white-02" data-name="00_boooooook_white-02" transform="translate(-151.245 -289.952)">
    <path id="Path_4" data-name="Path 4" d="M735.645,813.526c-1.558,13.917-5.7,17.9-17.007,15.616-5.018-2.412-.792-14.973,2.993-17.113A15.6,15.6,0,0,1,735.645,813.526Z" transform="translate(-67.656 -62.382)" fill="#fff"/>
    <path id="Path_5" data-name="Path 5" d="M789.271,809.107c-.986,12.694-25.9,14.41-15.845-4.56,3.424-4.384,8.521-1.655,12.254-2.65C789.359,800.463,789.517,805.877,789.271,809.107Z" transform="translate(-74.204 -61.264)" fill="#fff"/>
    <path id="Path_6" data-name="Path 6" d="M1005.049,797.78c4.7,0,9.366-.22,8.75,7.051.678,3.319-1.259,3.319-2.606,5.352-1.329,5.8-5.977,10.643-8.97,11.012,0,0-2.526,1.3-3.847.026a7.6,7.6,0,0,0-2.984-1.32c-2.562-.7-3.169-3.354-2.958-6.25C993.244,802.454,1000.8,797.78,1005.049,797.78Z" transform="translate(-100.706 -60.799)" fill="#fff"/>
    <path id="Path_7" data-name="Path 7" d="M935.746,925.509c-1.162-10.291,8.063-11.056,14.216-10.158,4.322,2.148,2.562,11.787,4.269,16.47-2.843,10.22,4.85,19.859,4.692,30.686,1.021,3.556,5.132,5.484,7.086,7.544,4.428,8.415,14.1,5.766,21.329,8.952,7.949-5.37,6.338-17.905,9.833-26.628,3.53-8.662.748-19.322,2.562-28.811.5-12.069,10.766-28.028,19.067-13.565-1.637,1.461.3,4.736-1.628,6.074-1.734,1.47.783,3.556.942,5.414,2.315,6.822-1.523,15.132-4.181,20.783,1.232,14.718-7.509,28.574-9.912,42.9-10.7,16.787-26.708,11.259-40.5,7.79C941.609,983.334,939.549,949.056,935.746,925.509Z" transform="translate(-93.912 -73.547)" fill="#fff"/>
    <path id="Path_8" data-name="Path 8" d="M948.945,824.242c.916-7.113,3.019-11.347,8.16-14.322,14.155,1.4,11.1,12.245,1.655,18.336C958.8,833.9,947.616,830.386,948.945,824.242Z" transform="translate(-95.491 -62.253)" fill="#fff"/>
    <path id="Path_9" data-name="Path 9" d="M780.748,912.88c1.373,16.408,1.408,29.806-3.68,44.964-2.1,12.183-7.033,26.866-17.676,31.267-8.257,7.377-18.125-.986-26.558-2.623-9.26-9.243-9.586-26.452-12.685-39.278-6.109-13.706-9.921-52.526,10.581-44.85,4.393,14.234,4.824,31.17,9.287,45.563-2.931,9.331,9.419,37.368,16.646,20.378.537-11.329,9.269-21.725,4.12-32.9.238-3.16.115-7.218,1.409-10.22-.132-2.852-2.694-5.053-1.8-8.415C754.172,888.628,785.7,880.353,780.748,912.88Z" transform="translate(-67.53 -72.061)" fill="#fff"/>
    <path id="Path_10" data-name="Path 10" d="M1364.868,1416.1c12.1,2.579,7.421,29.454,9.7,39.753-1.5,11.708,5.29,23.2.361,34.824,2.588,8.336-.7,18.688.246,26.021,2.817,5.467-4.27,8.856-1.6,14.278-.625,8.486,1.488,16.91.722,25.572-2.878,6.373,2.975,13.415-.493,19.657a72.412,72.412,0,0,0-3.539,11.839c2.139,6.584.687,11.778,1.417,18.134,3.477,2.324.713,10.061,3.055,14.419.484,3.6-3.609,7.077-1.074,11.232,2.579,12.746,3.53,25.616-.018,38.521-.907,9.56-1.232,22.394-2.35,34.269-.343,13.794,3.671,31.3-1.708,42.7,4.3,85.624,1.224,173.476-3.09,257.921,1.365,51.725,5.581,101.918,8.671,154.206,6.153,28.908,6.4,60.941,6.787,89.744a82.235,82.235,0,0,1-.6,13c.246,2.482,3.213,5.6,1.109,8.653-.766,5.475-4.586,10.766-.546,15.3,1.056,3.627-3.328,7.156-.687,10.44-.678,3.5.07,9.446-2.8,11.62-2.078,2.412,2.148,7.077.722,10.246-3.028.7-.924,2.79-.625,4.278-.4,15.22-.317,31.954-3.037,46.672.51,5.141,4.093,12.342-.651,16.3-3.856,10.493.238,25.528-.959,38.855-4.226,21.065-4.806,42.684-5.607,61.628-1.18,9.12-2.192,18.539.061,27.764,3.847,6.919-4.648,12.72-.924,19.648,1.118,5.73-2.967,12.9.255,17.87a11.794,11.794,0,0,1-2.87,10.053c1.012,7.456,1.672,14.5,4.348,21.522-2.421,1.84-.916,4.463-.836,6.831.361,4.375-2.834,7.518-1.848,12.315,2.667,3.908,1.813,9.384,1.875,14.753.2,1.717-.4,2.377-1.664,2.738.581,11.62-.018,22.209-.15,33.891,1.417,10.476,4.3,21.135,1.417,33.125,2.808,30.413-.625,64.277-.176,95.43-.819,25.581-.757,52.148-6.761,76.866,4.146,26.945-2.834,57.359-4.806,83.873-3.591,15.211-.775,30.4-2.685,45.634,2.395,16.9-3.987,33.732-2.834,50.845-1.611,26.329,5.625,55.959-2.526,78.38,3.2,23.046-.995,45.651.722,69.172-.185,5.044.995,11.32-1.8,14.7,1.312,3.786,1.444,8.363,1.426,12.086-3.838,8.671-5.836,21.981-12.474,26.76-4.349.836-3.072,8.142-7.377,8.935-7.447-8.935-3.556,4.948-7.887,6.514-7.491,5-7.835-2.58-16.127,1.813-1.479.757-2.79,2.914-4.445,1.927-1.62-.968-2.861,3.292-4.463.308-.088-.167-1.171.766-1.822,1.048-3.24,1.866-6.144-.7-8.724,1.285-20.449-7.588-1.241,13.574-7.738,19.868-2.016-.053-6.206-4.023-6.312-.123,0,10.026-9.393,1.725-13.952,2.095-6.919-9.586-17.518-12.5-23.459-23.168-1.716-2.06-3.371,2.359-5.74,1.619-2.139,2.448-2.782.115-4.595,2.166-5.748-.449-11.153,1.575-16.787.96-1.893-.159-4.692-1.655-6.866.44-2.694,3.4-2.914,11.347-7.773,10.009-10.22-.458-20.907,1.321-29.331-6.373-11.5-2.447-22.157-10.07-32.922-15.748-1.215-2.976-2.87-1.664-4.111-.573-1.84,2.474-2.553-1.065-4.551.836-2.65,1.443-5.317,3.274-7.57-.818a11.86,11.86,0,0,0-3.2-.062c-1.065.238-1.514-2.914-2.72-.889-1.056,1.787-1.593-1.707-2.606-.351-.282.378-1.153.642-1.241.475-1.8-3.565-3.636-.194-5.44-.132-3.653,6.646-8.97-1.541-13.266,1.127a7.172,7.172,0,0,1-6.831-2.764c-1.171,2.764-2.28-.1-3.424-.088-9.1,1.109-16.311-2.843-25.378-3.847-6.972,3.02-19.225,1.311-27.077-.7-3.142,4.3-7-.819-11.039.7-6.505,1.629-12,.432-17.693,3.812-4.322-2.227-5.07-.291-8.838-.141-3.283-.986-7.042-2.967-10.616-2.456-18.97,6.76-25.193.722-43.794-2.359-3.8,2.7-8.415-2.166-11.382,2.58-2.245,2.209-5.158-.291-6.963,3.125-2,1.347-4.815-.581-6.875,1.725-2.3,2.086-4.824-6.382-7.6-2.324-5.247,1.664-10.123-1.214-15.7-1.435-3.759-1-5.616,2.35-7.474,5.686-2.4,5.246-6.893,5.625-5.678,11.7.8,6.065-5.185,3.742-5.59,7.967-.414,5.423-6.021,8.354-5.176,14.3-11.118,6.074-25.22,14.269-37.095,8.944-.475-.66-2.209-.625-3.345.792-4.261,3.635-8.724-2.658-12.914-3.513-1.312-.845-.079-3.714-1.69-4.586-2.042,1.646-4.076-1.5-6.4-2.28-2.509-.167-3.935-3.09-6.567-.863-.775-.22-1.391-1.461-2.077-2.263-1.637,3.072-3.063-1.285-4.754-.211-7.526-.352-13.239-9.991-20.51-11.417-8.627-2.148-16.294-9.41-23.9-11.664-10.061-3.292-12.9-4.27-13.116-17.641-1.532-6.426,4.947-7.587,4.349-14.33,1.444-9.472-3.283-5.88-8.046-9.446-2.808,2.341-5.475,4.533-9.164,2.192-7.28,2.791-16.144-3.82-23.4-1.751-1.065-1.268-2.685,1.8-3.609-.828-1.725,1.048-1.567,5.4-4.146,3.125-3.53.625-7.121,8.5-11.364,4.542-3.759,1.919-10.81,1.725-15.114.009-8.1,1.584-15.9,4.859-23.926,5.1-1.769.607-3.838-2.544-5.467,1.1-3.451.845-9.648-2.175-12.165,1.8A43.3,43.3,0,0,1,600,3234.64a21.332,21.332,0,0,1-11.285,2.094c-1.3-.193-2.579,2.923-3.864.036-1.391.545-2.667,1.408-4.243,1.417-1.3.009-2.35-3.09-4.005-.343-7.025-1.417-16.655,3.944-24.269,3.424-2.755.748-6.18-.343-9.3,1.751-2.641,2.042-5.141-2.544-7.887-1.127-19.921,2.139-38.494,14.542-57.6,12.738-11.769,6.822-27.1,5.2-38.715,10.105-6.532,1.364-13.759.863-19.6,4.031-5.326,1.118-9.833,8.477-15.334,4.93-6.681-.669-14.084,1.937-18.706,1.479-.757-1.936-2.113-2.086-3.433-.669-11.8,4.886-25.326,4.736-36.875,6.32-10.44,5.8-22.394,9.489-33.671,4.41-17.949,9.964-59.9,23.679-54.771-14.173-1.074-13.556,9.674-31.769,1.505-44.243-4.56,1.813-6.523,11.215-12,11.928-1.074.44-1.6.51-2.262-.528-.951-1.515-1.32,1.628-2.623.422-3.952-2.888-3.556-7.923-3.548-12.5-.431-9.956,9.225-16.619,8.407-26.98,3.521-25.739,7.174-51.461,6.479-75.906,2.975-79.462-3.768-161.83-9.894-242.613a85.416,85.416,0,0,1-1.285-24.481c-4.111-6.021-2.755-12.869-4.6-20.229.431-25.827-6.6-48.706-5.555-74.3-7.923-35.431.282-71.373-3.671-107.191-4.19-67.051-8.838-132.631-9.278-200.175-1.734-102.737-14.208-202.877-18-304.945-5.132-87.288,2.87-179.576-3.38-265.412,3.495-42.773-3.856-95.431-.458-134.427,2.914-78.952-3.952-156.821-1.664-233.854-3.187-32.755-.96-67.341-6.84-100.087-1.364-41.7,4.3-83.432-1.919-124.717,4.357-50.044-1.884-101.531-7.113-153.582a826.736,826.736,0,0,1,.88-129.5c-8.776-48.653-14.049-97.35-12.429-147.393-1.91-29.683-6.4-61.479-2.843-92.64-8.178-25.475-6.549-53.442-11.179-79.515-6.584-16.162,5.572-36.769,8.125-51.056,1.584-21.769,5.423-43.442,12.412-63.846,7.711-17.236,15.757-32.834,23.01-49.058,3.724-1.391,2.993-5.2,4.974-7.966,1.972-6.012,9.2-3.178,9.41-9.41-.114-10.634,2.289-21.963,2.139-32.65-3.389-6.672-3.134-18.82-4.956-27.517-2.958-9.023-2.949-18.979-3.266-28.037.317-2.157,2.28-4.164.229-6.6-.308-2.931,2.482-7.1-.493-9.437-2.782-4.032-2.729-12.306,2.4-14.718,14.005-7.165,25.995-13.31,40.422-18.908,12.544-8.451,28.1-3.151,40.22-6.567,22.456-2.975,43.908-6.972,66.681-11.8,5.088,1.558,13.125-2.641,19.841-3.011,12.509,1.3,23.723-2.2,35.968-4.982,23.239-8.609,47.878-6.391,70.1-6.312,3.583-4.331,8.16,3.151,11.452.035,13.477.387,27.438,8.019,41.769,8.327,12.993.035,25.59-.2,37.931-.053,3.125,3.653,8.063,1.417,12.025,3.125,4.067-.5,7.711,4.762,11.021,2.667,5.343,6.2,12.9,1.919,19.137,6.021,8.618,4.762,20.026-5.687,4.164-7.148-14.155-5.079-25.431-11.752-38.574-18.257-8.266-3.231-16.716-7.843-24.833-8.785-10.185-1.69-17.922-7.509-27.869-7.2-17.289-3.178-34.991.308-51.584-5.378-15.361,3.512-30.51,5.238-46.17,1.514-19.19,3.671-43.67.819-64.744,1.646-12.623-.15-25.484,1.408-38.688.607-9.419.493-.687,19.745-9.507,23.926a2.129,2.129,0,0,0,.4,3.459c3.354.449,1.039,14.128-3.556,8.389-1.945-2.157-2.21,5.114-4.886,1.743-1-1.285-1.857-3.107-3.283-.651-2.289-.5-4.067-4.454-4.586-7.394-4.7-8.028-3.442-19.472-4.076-29.762,5.044-5.3.15-15.854,6.347-20.66,4.489-3.68,9.216-1.4,13.8-.775,8.2-3.389,15.37.5,23.1,1.347,9.886,1.664,19.463-4.9,29.164-1.514,11.8-2.966,22.667.528,33.556,1.364,31.1-4.868,64.639-2.623,96.408-1.109,39.427.273,79.788,11.7,114.894,31.752,18.979,10.669,59.771,20.625,64.78,46.294,24.172,14.393,57.64,31.373,78.653,56.311,22.13,29.032,15.018,6.32,32.209-10.114a253.165,253.165,0,0,1,59.383-49.612c15.959-8.486,31.461-7.826,49.058-9.7,13.82-.854,29.1-6.435,43.054-12.676,17.834-4.85,37.6-2.817,53.618-8.988,21-3.829,39.718-16.532,61.611-13.926,9.049.264,19.938-5.123,30.044-3.873,2.544-1.523,4.525-1.655,6.285,1.109,2.271,3.618,4.278-2.879,7.271.07,18,.951,33.785,2.923,51.637-2.421,2.253-.907,6.012,1.444,8.407,1.8,1.109-2.148,2.227-1.62,3.759-.722,2.535-1.611,4.789.387,7.121,1.417,11.5,1.285,25.625,5.827,20.4,22.306-1.215,12,6.408,26.514-3.142,35.871,11.127,16.461,36.76,17.7,53.644,25.422,2.333,2.667,7.72-.229,8,5.1,1.84,8.1.7,18.635,1.928,24.621,9.472,24.507,3.107,54.533,12.579,77.552,20.59,17.878,26.47,49.1,39.744,73.045-4.313,20.458,3.38,43.662,3.944,64.022,3.081,23.257-1.875,48.582,1.523,71.875-1.725,9.7,4.93,17.993,5.026,27.949,2.007,5.07.335,11.206-.88,16.294,2.306,7.262,4.2,14.542,3.68,22.667,7.148,42.588,7.817,85.845,16.127,128.961-.959,15.061-.59,33.521,2.579,49.542,1.963,10.132-1.285,22.183,2.834,32.148,1,3.107,2.659,6.866.66,10.669-.986,1.875-2.183,3.759.6,4.982.343.15-.114,2.755.379,3.433,3.09,21.259,8.09,41.9,10.132,63.864,7.077,32.79,5.924,69.656,7.315,104.682,1.3,13.169,4.287,25.264,2.28,37.491,5.009,12.289,4.727,27.958,6.725,40.713-5.766.264-.37,6.435-2.632,8.741-5.22,2.245-.467,6.866-.07,10.995,1.84,4.349-.079,10.1,1.787,15.114,2.306,2.975-4.551,6.021-2.007,9.868,2.051.3,2.2,1.5,1.444,3.9-.625,1.989,2.491.651,1.831,3.275a12.428,12.428,0,0,0-.493,4.3c2.069,5.73-.722,9.824-1.365,15.431-.872,8.213-.343,16.584-3.644,23.618,3.142,11.18,4.137,23.16,3.653,35.414C1365.783,1399.115,1370.185,1411.122,1364.868,1416.1Zm-539.363,779.6,23.574,2.465c6.329,1.5,14.973,5.519,22.394,2.385,1.276.687,2.227,1.778,3.5-.062,3.6,1.074,5.986,4.146,9.85,1.232,6.294,2.421,18.363,4.384,24.533,2.386,5.625-2.738,11.532-2.122,17.394-3.627,4.278-1.435,7.033-7.333,11.963-3.917,10.229-5.74,23.521-3.38,34.216-6.681,4.366-2.245,9.965-.193,13.371.4,2.659.687,3.037-5.9,5.757-4.912,2.359,2.447,6.012-1.972,9.049-1.365,5.977.088,11.276-1.787,16.972-2.649,9.084,1.769,12.931-9.78,20.651-11.866,11.769-12.386,28.257-13.979,40.563-25.061,6.215-.229,11.822-7.333,15.88-12.7a107.783,107.783,0,0,0,21.584-19.41c.519-4.217,5.819,1.734,4.709-3.926-.423-3.327,6.417-2.042,8.741-4.762,20.422-33.662,44.7-63.6,43.759-105.175.766-14.93,11.056-26.629,14.753-40.642,4.146-20.775,12.914-42.06,21.575-58.794,9.718-22.623,24.005-44.313,36.681-65.809,6.532-20.555,17.086-39.137,24.031-58.635-1.628-20.484,22.861-48.266,9.04-65.6-5.326-2.263-5.651-5.9-11.584-.009-3.979-2.87-5.722,8.829-10.114,6.928-4.956,10.51-6.356,24.524-13.512,35.1-1.954,2.9-1.673,16.434-5.22,14.568-3.68-.211-2.852,8.539-5.757,10.651-4.269,4.507-2.975,11.91-8.7,14.578-2.1,4.48-7.359,2.614-7.65,8.662-1.972,8.557-12.526,7.887-17.738,8.266-20.51,6.461-27.544-25.651-31.4-43.415a272.927,272.927,0,0,1,11.2-57.033c1.461-19.657,15.88-39.859-.431-57-4.357,17.588-4.208,36.056-7.623,51.981,2.342,5.528-9.859,27.588-13.125,34.04-.88,11.937-3.812,29.789-14.172,33.785-3.424,2.28-7.738,1.822-10.537,6.241-10.634-4.709-14.709-16.312-19.516-27.13-12.984-19.3-14.41-44.533-7.711-68.134,1.382-18.266-4.445-16.576-14.26-25.4-5.387-3.063-8.724-13.046-15.22-3.415-13.23,6.822-15.7,29.718-9.366,44.075,4.991,18.82,4.261,38.776,18.785,49.639,5.942,14.719,3.909,32.861,13.662,46.048,14.921,28.662,12.078,62.623,19.261,93.459,6.778,20.933,12.852,23.917,12.068,51.126-1.849,13.521,2.518,29.137-2.737,41.144-4.2,5.986-8.618,11.629-11.426,18.838-4.745,6.5-3.882,18.336-9.982,22.94-3.372,2.139-5.678,6.8-9.63,8.917-2.729-1.989-10.836,8.645-15.625,10.317-10.995,10.044-18.2,26.611-28.759,36.84-3.864,6.778-10.414,11.892-15.713,17.834-1.215.237-4.507.176-2.421,3.3-12.9,22.9-39.744,28.38-59.278,42.156-8.046,1.62-16.417,6.541-23.644,3.046-2.94,4.146-7.7.343-10.616,4.613-.959-.8-2.834-1.558-3.794.167-2.632,4.075-7.324,2.429-10.766,4.665-21.892,8.715-47.042,2.174-70.484,9.208l-19.454,1.681-22.958-.326-23.741-2.254c-8.213-3.2-85.651-27.587-129.99-36.954-17.06-2.958-31.091-12.183-45.4-22.685-16.267-8.715-33.671-17.377-43.125-35.906-19.824-23.327-26.083-58.547-52.077-76.355-16.778-16.99-33.406-38.169-50.827-53.5-23.653-43.512-38.327-74.234-40.757-126.7-2.773-27.209-19.2-52.376-31.584-75.211-7.746-22.9-13.09-48.6-19.208-72.535,2.174-20.555.317-42.781-1.576-63.177-.625-4.1,6.056-7.949,2.086-12.016-3.011-2.456-2.949-17.694,2.377-12.271,2.993.88.757-6.056,5.22-4.745,3.785-2.562,8.266-2.843,12.808-2.456,9.894,1.3-1.734,12.993-.475,18.345,2.192,3.75-1.514,3.644-1.963,6.136,6.849,33.16-2.35,68.864,9.111,100.475,2.694,24.753,15.854,43.2,27.016,63.3,3.336,15.317,11.849,29.533,16.567,43.89-.264,4.877,3.231,9.129,1.2,13.865-1.25,2.535,1.981,2.843,1.6,5.149-2.553,8.336,4.375,14.489,2.174,22.993-2.192,10.757,7.975,20.22,7.966,31.364-1.294,5.123,3.6,5.185,3.706,8.6-.458,2.949.616,5.713,2.21,6.144,5.158,8.275,10.7,15.66,14.507,26.039,8.468,13.617,21.347,21.549,29.639,34.181,8.82,15.5,24.058,24.2,35.009,35.766,5.352,7.324,10.493,13.081,14.058,21.267,1.937,5.687,1.532,16.232,6.8,18.283,2.447-.52,4.3,1.347,4.974,4.349,3.864,9.974,9.674,18.635,14.885,27.509,4.463,9.225,6.9,10.052,15.211,14.912,3.486,4.938,9.736,6.162,15.4,8.556,4.657,7.615,14.164,10.088,20.255,16.611,20.449,10.115,45.8,14.208,65.607,23.486,5.651-1.831,10.643,3.178,16.893,1.223,5.317,1.2,9.1,4.252,14.885,4.771,5.581,5.616,12.9-.185,19.3,4.225,4.621-2.482,6.584,4.049,9.921,4.727,10.651-3.732,20.149,14.9,31.259,9.393,7.209-3.873,16.417,1.69,22.359-4.278-.158-16.576,1.778-33.6.731-49.525,7.623-64.507,3.521-127.173-2.966-191.522-3.75-59.638,1.153-125.8,2.042-184.11-.431-49.806-5.88-97.358-11.549-147.111,1.118-15.81-29.621-.326-39-2.843-13.97,1.065-8.09,6.576-24.445-.114-8.107-2.676-17.8-3.081-26.276-6.972-2.227-2.227-3.521-1.021-5.933-.634-.8-3.847-4.005-2.429-5.484-4.806-18.8-7.843-35.51-18.134-55.457-22.623-17.271-9.789-34-17.914-47.984-31.761-11.338-.088-21.787-9.313-30.581-17.271-2.412-3.988-6.144-4.3-8.5-7.148-2.377-2.817-3.75-6.32-6.893-8.53-4.674-1.409-4.3-9.736-9.234-10.211-15.255-11.452-30.546-21.03-47.139-28.362-11.056,7.764-23.072,5.22-33.063,12.183-11.241,4.665-15.009,19.551-27.35,20.475-12.623,3.257-21.417-5.246-34.234-2.43-2.394.546-5.15-3.143-7.218,1.153-2.685-2.034-6.831.511-9.005-3.794-4.023-1.364-9.912.379-13.847-3.979-16.813-15.96,25.757-57.068,37.649-69.824,6.373-5.211,13.856-9.12,19.841-15.4,4.8-10.555-2.051-29.164-12.385-30.343-11.206.018-21.452-8.7-31.769-6.664-11.083,3.75-23.371,6.065-34.137,5.132-5.519,2.218-20.37-3.151-23.054-11.206-3.8-15.414-17.077-30-12.526-45.941,9.023-17.562,18.644-40.634,37.72-42.086,17.1-3.873,27.526,15.625,43.855,17.676,4.6.467,9,3.539,13.116,3.2,5.326,1.241,10.123,7.861,16.021,6.514,16.162-8.988-9.912-38.274-19.8-43.354-9.463-7.922-19.172-11-29.912-16.99-4.445-6.188-16.329-16.083-21.1-26.567-17.042-34.41,1.84-58.618,23.451-80.448,2.465,1.047,3.926-2.914,6.1-2.368,2.13,3.926,5.273.044,8.644,1.048,8.741-1.937,16.179-.423,24.991,2.588,12.922,7.429,14.287,27.359,21.391,40.616,4.437,9.252,12.491,13.406,17.042,22.957,7.773,15.74,23.213,19.1,28.3,37.65,3,10.537,15.282,23.626,23.618,22.332,6.505,1.109,1.206-9.753.282-13.239-2.1-7.923-2.623-16.426-3.363-24.762-1.241-24.041-3.01-50.809,9.718-71.513,15.766-12.315,39.084,4.164,46.426,21.857,1.241,14.833,4.085,27.817,5.6,42.473,1.822,18.081.458,37.526,2.72,55.176.15,18.706,3.979,40.554-.511,57.7,9.164,50.845,33.327,93.1,63.054,131.161,15.731,16.321,34.965,26.541,54.885,35.933,11.135,4.3,22.632,6.646,33.882,11.065,2.7,1.329,5.387-1.18,6.452,3.328,5.132-3.7,11.056,3.539,16.426.326,14.8-.581,28.31-8.635,42.9-10.246,7.509.59,2.518-10.5,1.373-14.868,1.329-23.591-4.269-50.536-2.817-76.1-5.458-48.865.291-97.5-2.738-146.364-2.447-44.815-9.076-87.64-8.38-131.812-5.7-32.157-10.1-66.3-8.345-99.419-20.229-99.3-5.546-201.266-3.627-304.1,3.248-68.151-9.525-135.712-11.144-201.874-.114-8.451-7.306-11.813-11.576-16.347-.4-2.879-3.2-2.051-3.266-5.114-.106-4.665-2.949-.88-4.137-2.289-2.341-8.3-11.109-10.414-16.012-16.8-4.718-.6-12.456-4.252-17.385-7.289-19.3-12.87-20.387-19.657-45.7-23.609-29.26-19.3-68.045-17.544-101.065-15.863-17.658-5.678-35.053-2.966-52.693,1.268-28.688,4.049-55.713,1.857-82.473,15.018-66.179,19.34-85.079,28.477-140.624,74.929-18.838,9.665-33.274,24.613-50.114,36.118-12.509,9.771-17.148,27.984-23.706,43.054-12.861,25.986-19.727,53.028-24.357,82.587-4.428,18.415-9.6,37.2-7.975,55.678,2.359,10.053.827,23,5.845,31.065.053.748.634,2.016.537,2.1-3.107,3.011,2.975,5.907.185,8.935,2.016,4.278,2.033,9.19,4.04,13.459-3.239,9.393-2.254,21.021-2.289,31.135-.7,22.975,4.753,48.354,5.009,70.818-.819,2.1-.669,2.139.3,5.326,1.188,4.437-3.556,7.7-.713,12.315-2.738,4.525,2.958,7.87.07,12.562-.423,2.782.607,5.669-.8,8.468-1.092,5.959,5.669,2.641,5.3,7.773-9.26-5.308-.8,17.685.977,19.753.211,3.38-3.548,3.143-2.491,5.845.458.872.96,1.444.431,2.667-2.4,11.822,5.915,22.209,3.979,34.542-.607,4.217,4.613,9.727.951,13.926-.37,1.981,1.452.942,1.743,2.034,3.231,21.056.572,41.32-.15,62.376-1.664,4.093,1.778,6.479.343,10.387.44,3.847-2.192,7.729-1.294,11.127,3.222,2.993-.009,7.852,1.866,11.056,1.593,1.171,2.254,6.092-.484,6.646-1.109,5.326.871,7.826,2.606,12.183,1.4,8.4-5.423,19.049-1.6,25.8,5.819,4.419-1.153,13.433.625,20.5.854,12.887,1.9,24.049,3.319,36.505,5.739,37.957,1.884,77.764,2.755,116.293,3.433,27.878,5.775,58.794.44,86.777,2.544,39.436,5.607,77.543,7.359,117.42-1.47,37.465,2.1,75.8.423,111.584-2.526,10.722,4.533,18.891,3.451,28.494-2.782,7.236,2.306,13.151.194,21.057-.291,29.348,3.363,60.061-4.032,89.6,3.424,127.737,5.114,259.893,4,387.568,5.238,87.35,9.938,176.363,18.2,264.769-1.083,17.526.977,34.128,1.769,51.373,1.32,24.771-3.732,54.075,3.433,77.209-3.521,37.4,6.056,77.191,6.822,115.968.387,27-1.752,54.5-.915,81.214,4.947,63.759,12.465,134.119,18.081,201.592,4.789,17.632,1.937,37.922,2.324,55.969,3.952,21.135,1.312,43.178,4.5,64.3-2.9,43.433,1.857,83.812-5.123,127.825,1.8,2.79-3.187,7.491.643,7.7,5.951-5.167,13.028-8.3,16.268-15.422,4.93-4.472,11.646-6.206,16.857-9.146,19.621-17.825,35.009-35.317,53.538-54.339,17.095-17.605,37.218-22.544,57.517-30.554,22.456-7.333,44.3-16.391,67.253-16.77,6.259-5.37,14.8-5.748,22.341-7.412,5.986.836,12.5-7.033,19.1-3.635,17.148-4.313,40.3-3.583,58.028-9.111,18.433,1.558,38.151-.933,57.148-.643,9.067-5.907,17.658,2.007,26.259,1.937,12.236,4.56,26.3,5.361,37.579,13.274,5.387,5.449,16.672,6.083,23.055,12.526,10.475,5.6,16.875,16.585,23.442,25.854,8.644,1.461,12.412,9.472,17.79,16.54,15.6,14.278,22.993,42.843,38.134,54.146,3.706-7.491-1.822-19.322-3.812-27.3-3.16-9.515-3.512-19.771-4.586-29.093-1.637-56.733,15.616-111.231,15.449-168.2,3.072-8.952.607-20.176,2.245-30.061,2.2-.2,1.637-2.544,1.047-3.5-1.276-2.033,1.224-2.975.379-4.956-2.491-5.607,1.567-9.674.9-15.537,7.051-34.392,7.474-69.419,4.577-105.827-1.584-44.5,3.838-89.832-.871-133.89-3.97-47.9-9.269-94.551-8.3-143.344-3.908-67.535,6.206-130.73,5.185-196.319-.616-29.181-.59-62.112,3.583-91.839-4.674-4.2-13.732-2.579-19.683-1.505-6.294.977-12.553-.572-18.257,2.694-1.54-2.861-4.806,1.021-6.593,1.012-1-1.646-2.729-1.549-3.354-.863-2.465,1.092-4.34-1.179-6.857.959-4.049,3.75-7.289-.968-11.752-1.214-4.542-2.747-8.512,1.848-12.87-.713-35.625,2.676-70.959-1.145-104.313-18.275-30.22-13.891-66.637-21.936-86.549-54.709a232.41,232.41,0,0,1-59.586-50.941c-4.375-4.366-8.5-9.965-13.961-14.93-.5-5.625-8.539-7.922-8.6-15.062-13.627-13.609-25.211-31.408-39.208-44.031-9.349-18.485-17.306-39.63-23.336-58.133-8.635-19.613-19.63-40.088-26.743-59.375-10.29-45.4-36.382-87.438-39.234-135.017-5.1-27.817-6.109-56.329-12.808-84.277.968-32.685,1.356-67.332-1.479-97.6.018-6.884,1.954-23.662,9.005-23.019,3.169,1.285,2.9-2.518,5.986.7,2.051.176.044,4.974,2.984,5.018,5.5,3.389,2.218,12.306,2.967,17.861,2.262,31.708-1.232,66.047,2.729,95.2-1.074,5.889,1.981,6.611,3.644,11.162-.836,6.752,3.345,11.681.977,18.363,1.928,27.042,5.255,54.251,13.891,77.508,4.78,21.329,8.345,42.975,20.282,60.88a1119.694,1119.694,0,0,0,52.931,142.041c8.847,21.347,29.172,30.774,39.947,50.228,19.507,27.209,42.315,55.7,70.519,71.558,2.192,7.121,8.38,8.274,13.222,10.844,6.514,7.439,12.984,15.792,21.4,20.467,16.144,15.387,41.259,22.6,61,29.929,32.429,20.731,73.582,21.417,111.584,22.861,15.211,2.834,31.2,1.382,46.259-.035Zm-2.544-668.869c22.06-5.352,44.375-16.743,67.112-7.606,10.194-.352,22.966-4.56,33.741-2.764,4.348-2.289,9.489-4.023,14.181-1.092,6.1-1.893,12.782-1.813,19.2-3.671,4.947-4.9,5.194-.361,7.562-3.116,9.841.035,22-2.747,33.222-6.857,1.127,1.963,1.928-1.5,3.037-.335a61.987,61.987,0,0,0,6.708-1.179c2.438-1.356,4.419-4.032,7.518-2.491,1.435,1.021,2.121-2.1,3.627-.616,5.282.924,13-6.637,17.262-3.636.2,1.849.7,1.875,1.8,1.1,18.539-9.683,48.5-3.01,62.192-25.343,16.69-8,40.977-18.864,44.621-42.693,10.88-20.555,25.132-40.625,29.313-64.067.317-12.456.81-24.084,4.472-36.161-3.116-6.479.018-13.9-.775-21.391.713-7.913-.519-15.959.4-23.415.933-7.861,1.127-15.7,1.391-23.934-.467-9.366-.053-19.613,7.394-24.04.018,2.641.783,1.576,1.4.493,1.135-3.759,8.037-7.156,6.981-1.224.484,3.521,2.518-1.655,3.2,1.25,2.218,6.813-3.627,10.281-.449,16.813a858.4,858.4,0,0,1-3.988,93.644c-2.676,10.5-2.8,20.062-7.306,30.326-2.438,7.5-4.868,16.54-9.789,22.773-11.9,19-17.685,43.741-31.267,60.774-9.7,15.194-26.329,21.4-39.225,30.818-.995-.581-1.329-.9-1.937.836-3.618,5.757-10.889,8.7-16.5,11.972-3.512-1.373-1.972,4.12-4.533,2.852-10.431,2.262-22.535,8.82-33,9.56-3.741-3.829-9.551,2.218-14.5,1.03-31.989,12.676-72.579,20.493-106.795,24.437-1.8,2.315-2.993-.079-4.445-.273a13.611,13.611,0,0,1-10.651.528c-5.581,3.319-11.628,2.676-17.236,4.489-6-2.65-12.923-.9-19.384-1.224-10.414-5.062-23.019-.854-34.824,1.32-5.915,4.446-16.936,1.981-20.255,8.627.053,14.094,4.789,28.82,2.808,42.834,4.806,2.843,2.183,8.213,3.635,12.606-2.025,2.878.106,4.736,1.048,6.593,1.241,2.588-1.171,6.663.5,9.454,6.549,23.2,3.785,51.206,2.377,76.751,5.185,41.69-3.812,89.233-.15,133.661-.352,23.169-1.171,49.014,4.375,70.545-2.526,12.984,2.148,27.474,2.033,40.255,1.831,11.566-1.453,23.239,1.875,34.172,1.778,37.772-3.16,73.177-5.352,110.246.775,12.412-.15,25.651-.062,38,2.456,4.375-2.165,14.85,4.067,14.639,7.262-.836,3.908,4.762,10.977-.1,7.6-.467,15.044-1.153,22.28-3.723,15.264-2.315,30.369,2.2,44.11-4.657,10.026-.458,20.669-10.062,30.044-8.292,13.468-3.354,28.7-2.817,40.132-15,16.734-6.989,29.876-16.074,40.906-31.373,22.095-24.736,25.81-45.924,55.132-63.248,11.153-7.368,12.984-22.641,18.6-34.04.132-8.926,9.718-9.815,10.194-15.458-1.1-3.169-1.382-6.109-.07-9.261-.906-12.429.106-25.07-1.514-38.177-3.063-14.094-11.241-25.1-10.942-40.3-6.25-25.669-6.611-54.313-16.3-77.64-7.333-11.03-10.475-28.292-12.747-42.667-14.392-14.929-26.311-63.829-20.387-85.615a17.678,17.678,0,0,1,1.84-8.495c-2.852-4.718,2.65-2.984,2.377-5.783,1.074-4.586,3.407-7.518,5.053-12.271,2.086-4.525,7.535-7.025,10.907-9.789,2.711-5.378,14.058-5.37,18.583-4.6,1.928,3.794,3.565,5.9,7.218,7.746,2.685,4.516,6.4,1.057,9.8,4.587,6.584,9.542,6.725,5.158,10.651,18.591,4.34,10.484.379,27.825-1.391,39.463,2.526,4.243,1.021,10.132,1.761,15.818,4.885,7.914,14.542,48.714,23.785,32.57,3.283-8.4,5.968-18.908,5.951-28.01,4.93-7.385,10.493-13.407,11.276-23.283,1.6-3.257,2.086-4.771.88-6.373-2.764-5.775-.933-13.046.537-18.618-.352-14.736.185-36.8,14.234-41.312,1.62-1.285,3.222-2.288,3.9-4.92,2.113,2.588,4.137-1.8,6.223-.141,1.761,2.174,2.615.053,4.938,2.421,5.343,1.664,6.285,10.035,11.488,12.368,4.665,11.215,5.8,23.82,4.921,34.8,1.875,7.289-4.525,14.437-5.845,21.417-1.611,6.4-2.139,12.077-4.815,17.7-.977,16.444-9.921,30.466-7.482,46.664-1.364,7.94-1.461,28.063,9.155,27.438,24.111-6.708,26.848-35.51,37.333-55.722,5.959-14.525,9.665-29.762,19.78-39.551,3.3-.106,4.5-4.208,7.658-4.929,6.065.854,9.146-3.2,13.486-5.335,9.78-8.723,17.095.581,24.991,7.746,1.206.616,2.28,1.717.933,4.243-1.012,1.893-.238,3.266,1.637,3.231,3.3.977,3.019,7.262,4.974,10.176,2.632,8.715-5.079,15.625-4.111,24.428-6.206,2.94-3.759,13.257-7.1,19.313-1.224,10.123-5.431,20.017-5.792,31.232-6.021,9.1-10.9,21.091-15.484,32.4-2.438,1.7.088,7.033-2.658,8.46-2.517,1.822-.59,10.889-4.542,12.518-7.06,14.507-17.676,28.107-26.4,43.318-10.625,20.273-24.586,37.922-27.975,62.095-5.334,20.634-14.753,40.167-19.842,60.079-.009,18.943-3.583,45.66-17.394,59.19-3.732,10.713-11.039,19.675-17.095,29.216-4.507,17.007-15.335,23.248-26.708,32.1-30.924,31.769-67.552,52.2-103.494,72.227-4.173,2.781-10.229.924-14.349,3.407-2.817,3.855-6.919-.062-10.387,1.514-8.063,4.2-16.989,4.71-24.8,5.555-6.558-.194-13.908,3.592-21.479,4.692-10.493.96-20.739,1.576-30.581,6.321-2.914-2.421-4.974,4.208-8.688,2.562-2.271-.986-3.125,4.683-5.009,1.708-2.509.141-4.155,2.57-6.945,1.18-2.359,3.494-3.671-2.976-5.722-1.048-8.908,9.216-22.051-3.23-31.25-.8-7.614.211-18.741-1.91-27.773-3.6-18.143-4.78-9.868,26.267-12.306,38.362,1.3,14.736-1.576,30.739.942,44.287,1.505,50.079-7.931,101.918-7.958,151.795a321.948,321.948,0,0,1,.7,49.066c5.88,20.238,3.363,47.993,4.586,71.25.995,33.072,9.78,65.369,6.444,99.013,2.694,14.031-2.553,27.64,1.435,41.681-.449,11.03-.59,23.248,1.074,33.354-2.922,3.178-.942,7.341-.748,11.047.44,11.364-3.548,23.125-.15,33.653-2.236,5.722-.211,12.94-1.224,18.67a74.037,74.037,0,0,0,.836,17.632c-.246,18-.009,38.125-5.563,53.661.414,5.4-2.13,10.018-.282,15.352a3.323,3.323,0,0,1-.167,4.023c-3.213,3.724-1.162,9.137-1.8,13.723-6.813,24.806-.264,52.156-6.769,77.676-1.937,3.829-3.926,8.1-1.629,13.4.335,5.625-4.322,10.105-2.676,16.8-.537,7.271-2.447,13.715-3.653,20.748,2.4,7.033-2.931,15.132-2.808,21.505-.185,6.426-.026,12.342-1.787,18.169,2.685,6.118-1.752,13.1,3.521,17.209-2.412,16.594,6.338,32.13,5.088,48.468,5.44-6.417,13.988-16.8,19.076-18.274.766-10.625,10.431-18.724,16.681-25.924,5.528-2.887,9.736-12.606,16.373-11.611,2.614,1.171,2.544-3.107,4.287-3.908a131.851,131.851,0,0,1,38.2-29.023c7.438-5.563,15.818-8.714,22.421-14.656.634-1.62,1.849,1.77,2.306-.59,1.479.282,1.224-2.165,1.937-2.518,3.354-1.963,6.646-1.365,9.718.485.1-4.754,3.257-2.051,4.648-4.023,13.09-10.66,30.854-13.908,45.678-20.88,8.495-4.12,18.213-9,27.2-11.118,2.931,1.76,4.718-6.091,8.327-1.549,1.2-.141,3.134-.52,3.495.282.9,1.972,1.672-1.154,2.482.431,1.18,2.324,1.813-1.822,3.142-.81.836.634,2.43,1.488,2.694,1.056,3.53-.669,7.966,1.884,11.989-.889,3.591,1.047,7.394.722,11.224,2.4,13.266,8.512,26.619,12.544,38.38,23.521,9.155,1.232,17.588,6.629,24.595,13.38,11.091,3.09,19.551,15.193,29.26,21.188,17.033,8.16,32.245,22.914,43.222,39.832,11.259,6.69,19.023,19.683,29.3,29.207,3.741-3.019,1.391,4.146,3.671,5.431,6.954,9.3,12.861,17.623,19.34,26.628,6.593,7.2,15.035,10.871,19.692,20.326,2.755-.361,3.645,4.348,5.863,5.009,2.658-.414,4.208,2.113,5.053,4.437,4.56,7.694,11.937,5.335,18.125,9.56,6.435,3.424,13.354,7.192,20.273,11.5,1.725-1.655,4.551,2.614,4.56-1.937,2.9-54.374,4.454-115.879,5.308-173.582,4.833-96.513,13.855-194,16.849-290.086.9-112.966-3.935-228.115,6.5-338.669,4.6-24.049.563-48.9,2.755-72.5,2.764-38.715,8.856-78.556,6.584-117.922-8.9-85.449-13.424-174.911-10.282-262.243,2.034-41.681,4.005-84.234,4.63-126.434-2.606-49.841-5.942-98-1.813-149.436,1.875-23.345,3.451-42.825,1.734-65.21a75.631,75.631,0,0,1-2.694-24.058c-2.315-5.739-2.887-14.208.009-20.915.211-44.965-.343-93.257-4.639-139.145-8.4-21.567-7.834-46.135-9.322-69,.924-32.685,7.535-63.389,4.806-95.8-6.628-47.209-11.893-95.263-14.005-144.524,2.13-34.031-10.608-65.642-13.838-98.195-8.424-61.347-7.271-126.117-18.908-187.156-6.065-45.915-14.56-91.672-17.958-139.216,1.532-37.878-.044-80.73-11.259-117.314-10.5-12.526-9.111-37.06-22.271-42.376-2-3.407-5.141.264-6.857-3.873-6.135-20.079-23.142-35.66-38.222-47.429-29.243-25.211-65.149-38.626-96.566-60.149-16.232-9.929-33.591-18.248-50.29-27.834-14.63-4.789-29.63-3.53-44.339-6.039-7.861.748-18.143-.229-25.475-.863-8.486.493-18.741,6.047-27.782,3.151-7.385,4.287-17.218.467-22.808,8.847-6.9,4.613-14.727,11.347-21.567,14.023-10.546,5.44-22.632,12.218-34.63,13.864-7.306-.238-12.8,4.357-17.922,11.523-9.032,3.055-17.773,8.548-25.73,13.785-2.121-2.861-.739,2.236-2.174,1.734-3.724-.88-3.917,6.382-6.787,2.72-5.1.22-7.87,8.6-12.3,9.762-7.632,4.736-15.739,11.584-22.738,15.352-1.593,2.773-3.926,2.377-6.1,2.834-2.606,1.435-4.137,5.044-7.06,5.731-1.109.766-2.253.572-1.056,3.213,1.153,5.572.871,11.47.29,17.095-1.338,11.822-1.523,25.951.194,36.848-2.386,10.819,4.753,22.271,1.417,32.253,2.271,23.248,4.076,48.362-.123,72.5,1.144,7.43,6.417,18.635,1.47,26.8-2.025,2.606,2,8.389-1.364,11.567-.81,4.771.678,10.185-1.849,15.009.563,9.481,1.03,19.137,1.056,28.468,2.914,6.893-1.972,16.276-2.535,23.354,1.294,8.3-2.333,13.09-1.118,20.458-1.127,26.364,2.482,49.692-1.54,75.307-.282,3.856.123,7.967,2.623,10.519-1.435,13.222-2.183,25.6-1.408,38.415.026,16.479,1.725,32.209,7.9,46.848,1.672,12.729-1.391,30.352,2.535,41.153-2.042,16.532.493,32.764,3.838,49.7-.176,2.218-2.394,5.484-.687,6.672,1.118.73,2.007,1.136,1.813,3.415-1.03,5.1,3.82,10.739,1.593,14.533-.951.933-.493,1.549.123,2.271,1.224,1.444,1.32,2.9.343,4.824-4.014,7.016,2.887,10.581,2.5,17.562-1.681,45.906,5.555,92.834,9.084,139.127,0,17.447-3.433,35.6-3.574,51.945a287.221,287.221,0,0,1,.863,32.271c-.458,4.428,2.931,10.546.132,15.854,3.574,16.267.088,32.235,1.884,48.855,6.532,9.419-2.694,21.7,1.62,29.568,2.2,2.87-3.424,11.681.977,13.3,2.43,1.153-.291,5.722,2.121,7.3,4.1,3.037-.634,11.972,2.808,14.428,8.865-.22,14.762-3.451,22.28-2.13,2.887-3.627,5.669-.018,8.812-.5,2.852-.8,5.317-1.831,8.028.079.308.035.845.141.889-.018.872-2.729,2.386.238,3.213-.643,1.505-1.576,2.43.035,3.627.616,3.107-.361,5.713-1.849,8.935.053,14.243-5.7,30.95-7.517,45.466-4.278,2.253-1.681,3.68.405,5.81.414,1.769-1.347,3.407-2.386,4.34,1.312,6.373-.1,13.38,11.479,18.274,5,2.5-1.144,3.759,2.078,5.722,2.676,1.479,5.88,15.079-.81,19.586,1.761,13.178,1.866,22.984-8.327,35.343-10.951,2.632-3.812,9.067-1.637,13.292-2.333,7.429-1.928,16.972-4.1,23.653-8.662,3.283-1.224,5.255-3.847,8.222-5.2,1.276-1.109,2.746-4.771,4.551-3.591,1.813,2.324,2.571-.977,3.882-.766,1.576-4.78,8.2-1.259,10.757-7.095,6.584-4.164,11.672-10.546,16.62-16.62,14.551-3.459,23.556-17.509,27.632-32.6,14.384-31.443,25.642-64.665,25.554-101.205-1.884-15.713-1.954-32.526-4.789-48.063-1.664-10.458-7.315-21.338-2.755-31.232,3.354-24.657,19.41-2.1,18.732,12.341.044,17.394,3.926,32.676,7.069,49.7-2.077,11.3-.378,22.641-.061,33.688-3.292,6.32-2.421,14.419-4.278,21.206.458,3.046-4.137,2.878-2.262,5.669,1.981,3.926-3.1,5.7-3.055,9.754a57.3,57.3,0,0,1-5.686,17.579c.317,5.6-8.283,25.977-12.79,28.072-3.046,13.38-10.537,26.54-18.09,37.429-14.014,11.594-28.468,25.4-43.2,36.294-12.245,2.826-17.509,10.422-29.2,13.556-1.954.185-2.13,3.134-3.239,4.366a44.541,44.541,0,0,1-6.092,3.257c-7.1,2.975-13.653,2.236-21.153,2.526-3.847,2.949-7.993,5.088-12.077,4.005-3.31,3.451-10.625,8.917-17.024,8.768-6.769,4.6-14.745,3.116-21.8,3.688-5.15-4.753-10.766,2.87-16.012-1.153-1.981,1.945-2.28.422-3.662.493-2.306,2.086-2.553-2.13-5.044-1.813-3.292-2.192-5.871-4.85-8.961-6.866-11.179-4.56-24.419-8-36.162-4.709-1.7,1.945-4.225-2.386-5.8-.3-1.708,3.063-4.525-.132-6.039,2.007-2.412,3.222-4.19.467-5.792,1.056-5.334,2.711-11.127,2-17.033,2.456-2.086-3.627-4.727.37-7.183-1.206-2.6.828-5.537-2.262-7.377-1.188a199.025,199.025,0,0,1-24.313,3.284c-3.53.026-13.442.7-18.142,2.421-8.952,1.655-16.743.37-25.863,3.75-9.753,3.574-17.377,8.327-27.377,6.928-82.165-7.588-138.679-57.315-174.374-142.12-18.213-51.311-12.139-109.216-15.106-163.247-4.19-15.634,1.135-36.074-10.07-48.2-4.507-5.378-15.731-14.8-16.391-2.007-.722,3.75.4,7.87-1.69,11.3.845,5.264.4,10.818-.167,15.669,4.357,5.44-.995,11.408,1.708,17.051,1.012,1.373,1.646,2.474.246,4.076,3.266,6.488,4.437,11.831,5.537,19.137-.114,9,6.505,16.2,2.623,25.537,1.215,9.208-4.78,9.507-6.452,16.091-1.444,2.078-4.815.678-6.981,2.113-4.41,2.808-6.716-8.908-10.22-5.009-1.989.15-4.525-2.227-6.576.07-3.31-4.472-11.373-3.187-15.951-8.169-11.461-7.5-16.593-23.521-25.581-34.947-4.85-6.453-10.959-10.731-14.621-17.9-5.44-11-15.9-15.237-20.995-26.839-10.669-25.132-7.914-44.542-37.376-39.181-7.711-6.135-13.222,13.574-20.414,17.658-2.931,8.336,3.4,19.965,2.342,29.595.986,4.437,6.012,6.074,7.491,11.039,14.1,17.4,35.563,19.8,51.267,36.884,6.831-3.108,8.512,9.384,11.963,13.838,3.2,5.475,6.989,8.363,9,14.348.431,6.787,7.1,12.6,4.225,19.12-4.393,13.768-16.144,29.472-29.2,28.97-13.952-.009-15.546-11.32-27.465-11.594-15.81-1.619-27.975-14.41-43.081-19.128-5.66.255-11.118,3.371-11.532,10.6-2.324,5.317-9.613,10.968-7.6,17.051,5.81,12.447,5.572,30.695,18.829,33.847,19.146,3.477,38.653-11.708,58.635-2.518,20.836,4.419,37.913,7.993,39.9,37.9,6.285,20.061-6.866,28.459-20.484,35.572-14.322,12.5-27.4,25.739-38.829,40.721-9.833,9.137,7.174,17.94,13.864,11.8,7.729.687,16.716-1.549,23.028,1.875,7.738,7.421,31.039-25.291,42.711-23.556,11.84-.123,22.113-10.88,34.639-8.829,4.419-.739,7.086,3.266,10.387,4.754,1.593-2.051,2.491.51,3.028,1.3,4.745,4.665,11.584,4.322,15.915,10.413,2.007-.783,10.053,5.519,10.114,7.324-.352,3.116,9.137-1.453,11.884,5.431,5.59,2.174,3.266,7.65,7.324,9.225,10.59,5.238,13.037,19.947,24.5,23.864,7.852,5.836,18.116,5.766,26.6,13.327,6.831,2.8,12.755,8.935,19.6,12.306,5.159,1.866-.132,3.424,6.752,6.188,4.419,1.382,9.067,3.125,12.834,6.32,3.266-1.8,6.787,1.321,9.78,1.98,2.051,4.137,5.766-.167,7.887,3.107.634,1.391,1.294,1.382,1.989.079a117.42,117.42,0,0,0,15.44,6.1c33.468,17.192,70.977,26.162,105.034,15.766l14.569-2.368Zm439.98,1684.3c-1.875-10.546-13.09-16.188-19.648-22.5-4.542-6.62-8.812-11.241-13.169-16.743-14.155-22.156-34.084-37.588-50.545-58.432-13.477-11.972-27.438-17.685-39.34-31-5.167-4.868-12.588-6.638-17.94-12.077-8.134-8.952-22.6-9.146-32.579-16.637-9.164-2.4-19.26-14.455-31.012-15.634-2.755-1.752-4.454.669-6.206-1.356-2.1-1.8-3.732,3.116-5.757,1.224-2.157-3.134-4.7,2.368-7.1.07-2.034-2.333-5.414.529-6.875-3.627-.088-.247-1.567-.044-2.042.52-12.623,3.4-24.762,7.878-36.3,14.745-16.444,4.1-30.264,12.13-44.577,21.073-36.91,14.507-93.468,55.686-114.682,95.589-44.9,52.332,37.465-16.444,49.727-22.376,11.224-3.24,21.593-12.632,32.517-19.208,9.181-4.032,17.033-9.031,26.294-13.855,4.208-1.98,12.676-.995,17.412-4.577,6.021,2.808,5.088-2.816,9.181-1.514a78.8,78.8,0,0,1,34.912-1.681c3.53-.176,8.873,4.665,11.241,2.755,9.349-1.672,20.255,1.8,30.343,3.609,20.986,6.523,42.227,10.308,63.53,20.018,8.7,8.354,18.627,11.91,26.109,21.8,8.574,5.247,20.018,6.188,27.262,13.627,8.591,5.308,11.1,16.55,16.373,24.472a45.793,45.793,0,0,1,9.3,9.146c7.993.819,16.822,7.808,23.01,14.1,6.347,6.091,15.836,6.769,21.347,13.979a65.5,65.5,0,0,1,19.912,20.941C1265.952,3257.712,1257.87,3217.809,1262.941,3211.127Zm-966.129.511c-1.822,25.6,10.642,1.8,16.435-5.81,10.678-6.919,15.871-24.877,28.662-31.426,2.878-.053,3.882-5.986,6.382-2.606,4.621-4.542,10.722-5.775,14.877-10.325,4.71-2.016,7.174-8.917,12.183-8.759,1.364-.854,1.294-3.53,3.1-3.222,25.827-18.416,55.061-26.074,84.11-32.456,17.412-6.03,36.584-1.954,53.891-2.447,9.525-1.021,17.914-.123,27.729.2,5.66-.053,10.431,4.261,15.686,2.156,6.9-.079,13.459-2.086,20.563-4.638,7.1-2.764,14.322-1.312,21.2-2.817,3.9,1.135,8.9-3.063,12.3-.678,1.382,2.166,2.535.511,3.75.634,6.84-.475,12.324,1.479,18.653,3.16,7.192,2.174,15.15,3.2,22.623,8.345,1.259,3.706,4.234,3.724,7.025,5.537,15.229,9.85,31.523,12.658,46.716,23.6,30.141,8.741,49.709,42.984,78.327,53.45,7.2-7.421-12.148-17.9-14.692-26.03-2.676-13.274-2.359-5.871-7.3-12.359-14.2-30.193-37.764-53.776-62.852-73.512-6.444-4.93-13.151-10.035-18.847-15.176-8.028-1.937-17.544-.432-25.079-4.419-15.466-9.806-34.586-7.183-51.426-3.319-26.769-4.5-51.056,2.923-78.371,5.1-11.787,3.468-22.738,2.79-34.023,6.25-24.1,11.074-50.818,10.044-74.093,21.382-19.824,7.43-41.6,10.37-58.776,24.974-4.789-.026-7.843,8.442-12.984,11.03-3.548,2.544-6.347,5.528-9.146,7.922-.088,2.852-4.507,2.157-4.886,5.8-10.959,15.219-25.933,28.644-39.251,38.494C289.057,3192.422,298.995,3204.218,296.812,3211.638Zm877.221,8.424c.37-7.456-8.671-10.59-12.209-16.382-5.537-4.886-7.2-14.665-11.849-19.621-9.533-6.55-21-8.2-29.947-16.056-16.9-16.135-37.315-26.787-59.876-30.4-13.169-.713-26.3-11.584-38.23-7.782-2.685-2.139-6.312-2-9.533-1.3-3.416-1.153-6.981-3.433-10.4-1.321-4.252-1.734-8.539-2.931-12.738-1.162a144.572,144.572,0,0,0-47.641,12.623c-5.3,3.847-10.475,8.75-16.294,10.686-2.676.7-2.174-2.341-4.2,3.231-2.271,4.243-7.033-1.954-8.442,3.97-2.245-.564-3.248,1.875-4.445,3.635-2.086,5.035-7.632.493-9.375,5.439-.8,2.659-1.963,2.466-3.451,2.466-7.06.713-12.746,6.909-17.958,12.65-7.394,5.211-19.384,10.263-21.417,19.031-4.269,1.294-9.348,2.28-10.449,7.553-.035.387.123,1.664.818.933,2.5-4.6,6.7-2.235,9.745-4.533,3.116,3.31,8.213-2.086,11.848-.713,15.827-5.476,33.521-7.685,50.123-14.366,8.107-.484,15.387-3.777,23.363-2.711,7.764,3.653,16.769-.37,24.7-.009,6.972,2.421,7.94,4.34,15.4,3.107,2.834-2.4,5.422,1.2,8.583-1.47,9.41,4.384,22.289-1.409,32.878-2.905,16.681.009,32.781,6.778,47.068,15.634,11.1.6,23.169,10.669,34.559,14.806,12.262,11.76,31.717,10.889,46.391,21.082,5.986.854,12.271,9.586,17.377,8.521.334-2.148-.836-5.1,1.831-5.871,1.039-4.515,2.209-9.78,2.3-14.48C1175.01,3224.1,1173.751,3221.585,1174.033,3220.062ZM239.418,486.639c8.389-4.128,14.868-11.954,22.641-17.649,9.155-2.139,17.465-12.35,26.8-17.6,14.032-9.049,25.792-26.743,41.558-31.021,3.944-1.8,7.931-8.776,12.605-6.356,4.3-.66,7.077-4.806,11.981-6.7,6.849-2.227,12.975-3.1,20.044-6.162,9.014-3.028,19.445-8.926,28.688-8.407,4.005,3.688,6.558-3.459,10.643-2.958,19.067-10.414,43.811-16.708,62.517-16.672,15.783-1.655,33.829-2.289,48.2-7.94-2.949-5.1-11.69-6.752-16.972-8.363-3.486-1.672-8.882,1.743-13.178-1.347-29.956.317-61.778-.51-91.654,7.711-2.685,3.724-5.7,1.488-9.093,3.627-3.521,3.371-7.746-2.069-11.118.449-3.327,1.743-6.857-3.486-8.873.757-1.629-2-2.209,1.294-3.829.3-27.051,4.322-53.353,11.9-80.5,13.926-1.91.555-3.794,2.746-5.748.035-4.023,2.764-9.349,5.282-14.014,2.993a168.117,168.117,0,0,0-26.857,8.231c-13.38,8.548-23.028,4.349-15.141,26.347-5.986,11.1-.326,23.5,1.47,33.943C231.011,463.822,230.774,481.833,239.418,486.639ZM1166.63,357.476c4.005-29.445-25.308-15.783-41.021-15.827-7.474-.361-13.231-.4-20.238,1.056-2.535-1.118-9.454-3.732-11.382-1.215-13.09-5.528-28.917,2.685-40.774,1.364-6.822,3.838-15.88-1.461-23.222,1.725-18.635,5.2-39.331,18.7-59.868,16.144-28.935,1.162-48.38,15.722-77.147,16.426-36.285-2.923-83.952,34.947-101.153,71.734-27.482,50.554,47.113-18.248,61.522-22.35,8.944-4.463,18.151-4.727,25.951-12.65,9.833-4.71,17.579-5.8,25.907-12.509,8.31-2.456,15.458-12.192,25.185-13.16,2.386-3.7,2.342-.493,4.806-1.426,5.739-5.484,13.873-6.664,21.047-5.995.651-3.732,1.6-.15,5.493-2.456a34.85,34.85,0,0,1,16.118-.132c7.174,1.769,13.336-6.857,20.238-6.144,5.827.062,12.209-3.011,17.051-3.864,21.576-1.69,41.751,4.067,63.389-2.456,18.486-4.217,37.333-6.408,55.044,2.086,11.373,7.315,22.28,7.359,34.806,6.716C1170.494,369.87,1165.23,363.55,1166.63,357.476ZM472.691,3137.184c-25.105,4.613-54.929,15.783-79.348,28.539-14.093,21.962-58.82,27.807-55.8,62.754,9.894,2.5,20.238-19.666,31.056-24.78,11.276-4.208,22.245-15.352,32.781-22.852,17.782-8.327,35.739-17.2,55-21.716,20.255-4.753,42.183-14.709,61.144-10.352,9.542-4.6,22.421,4.621,31.206,3.08,3.081,2.518,6.47.643,10.114.361,4.965,1.69,10.845,1.972,16.347,2.949,13.539,2.729,27.817,8.011,43.882,11.048,20.017-1.338,38.459,8.574,56.848,15.325,17.183-2.843,35.211,6.585,51.848,14.807,2.984,1.162,6.831-.731,9.146-2.984,1.875-4-6.681-3.169-6.91-7.28-21.479-15.132-45.255-29.7-70.017-38.459-15.581-9-33.222-21.928-50.845-16.505-16.312-6.012-31.127,11.488-47.244,7.376-10.836,1.532-21.593-4.419-31.118-4.78-7.421,2.244-16.8,4.3-25.722.581C494.451,3136.066,482.8,3135.354,472.691,3137.184ZM1096.208,386.059c-12.711.185,11.171,13.442,14.613,13.037,5.422,6.664,13.838,6.91,20.2,12.359,13.389,2.192,22.958,17,35.818,19.164,6.224,4.551,11.47,11.7,18.5,13.706,2.544,3.275,6.972.863,10.22,2.984a27.888,27.888,0,0,0,8.055,6.928c5.986,6.426,12.429,9.26,19.119,13.3,4.4-1.479,13.4,11.849,10.951-.044-4.674-13.239.044-36.294-10.942-44.586-10.643-4.877-23.072-6.056-34.155-12.35-10.176-3.248-18.4-14.85-29.806-10.475-15.493-.607-28.882-6.875-43.38-11.514C1108.91,385.407,1102.176,389.008,1096.208,386.059Z" transform="translate(0 0)" fill="#fff"/>
  </g>
</svg>
