<?xml version="1.0" standalone="no"?>
<!DOCTYPE svg PUBLIC "-//W3C//DTD SVG 20010904//EN"
 "http://www.w3.org/TR/2001/REC-SVG-20010904/DTD/svg10.dtd">
<svg version="1.0" xmlns="http://www.w3.org/2000/svg"
 width="700.000000pt" height="700.000000pt" viewBox="0 0 700.000000 700.000000"
 preserveAspectRatio="xMidYMid meet">
<metadata>
Created by potrace 1.14, written by Peter Selinger 2001-2017
</metadata>
<g transform="translate(0.000000,700.000000) scale(0.100000,-0.100000)"
fill="#000000" stroke="none">
<path d="M4023 6111 c-169 -58 -284 -242 -286 -457 0 -94 21 -133 84 -154 25
-9 57 -23 72 -33 62 -40 169 -5 251 84 52 56 116 168 116 203 0 9 18 36 40 60
38 41 40 46 40 107 0 134 -36 184 -141 199 -90 13 -117 12 -176 -9z"/>
<path d="M2811 5764 c-70 -64 -110 -139 -135 -251 -30 -135 -20 -186 49 -245
28 -25 113 -49 144 -42 32 8 61 32 61 51 0 8 11 24 24 36 154 144 194 200 203
290 10 97 -48 167 -166 201 -93 27 -112 23 -180 -40z"/>
<path d="M4389 3460 c-52 -27 -129 -116 -166 -191 -80 -163 -102 -300 -113
-709 -4 -162 -11 -306 -15 -320 -4 -14 -22 -72 -40 -130 -19 -58 -47 -182 -64
-277 -17 -94 -43 -205 -57 -245 -31 -84 -84 -169 -124 -198 -26 -18 -30 -19
-64 -5 -20 8 -101 26 -181 40 -80 14 -163 31 -184 39 -70 24 -131 67 -168 117
-19 28 -65 75 -101 106 -117 98 -125 113 -137 253 -5 68 -27 153 -90 360 -37
121 -39 130 -41 290 -3 205 -28 449 -53 504 -32 71 -48 80 -159 80 -104 0
-154 -12 -214 -52 -52 -34 -88 -109 -88 -182 0 -105 105 -774 155 -982 119
-504 305 -812 574 -951 62 -33 259 -86 431 -118 100 -18 293 -16 370 5 100 27
197 83 271 156 95 94 122 140 143 240 10 47 58 206 108 355 49 148 100 315
114 370 27 113 49 295 42 352 -3 22 1 50 9 65 34 68 86 210 104 283 31 129 22
252 -24 342 -22 42 -21 59 3 90 14 18 20 41 20 74 0 26 5 60 10 74 12 31 4 50
-48 107 -68 75 -150 97 -223 58z"/>
</g>
</svg>
